<?xml version="1.0" encoding="utf-8"?>
<!-- Generator: Adobe Illustrator 25.4.1, SVG Export Plug-In . SVG Version: 6.00 Build 0)  -->
<svg version="1.1" id="Layer_1" xmlns="http://www.w3.org/2000/svg" xmlns:xlink="http://www.w3.org/1999/xlink" x="0px" y="0px"
	 viewBox="0 0 50 50" style="enable-background:new 0 0 50 50;" xml:space="preserve">
<style type="text/css">
	.st0{fill:none;stroke:#FD7E14;stroke-width:3.5294;stroke-miterlimit:1.1765;}
	.st1{fill:#fd7e14;}
</style>
<circle class="st0" cx="25" cy="25" r="17.6"/>
<path class="st0" d="M8.8,2.9h32.4c3.2,0,5.9,2.6,5.9,5.9v32.4c0,3.2-2.6,5.9-5.9,5.9H8.8c-3.2,0-5.9-2.6-5.9-5.9V8.8
	C2.9,5.6,5.6,2.9,8.8,2.9z"/>
<path class="st1" d="M32.7,19h-3.6c1.1-1.1,1.8-2.6,1.8-4.2c0-0.5-0.4-0.8-0.8-0.8c-2.1,0-4,1.1-5,2.9c-1-1.7-2.9-2.9-5-2.9
	c-0.5,0-0.8,0.4-0.8,0.8c0,1.6,0.7,3.1,1.8,4.2h-3.6c-0.5,0-0.8,0.4-0.8,0.8v15.4c0,0.5,0.4,0.8,0.8,0.8h15.4c0.5,0,0.8-0.4,0.8-0.8
	V19.8C33.6,19.3,33.2,19,32.7,19L32.7,19z M31.9,26.7h-6.1v-6.1h6.1V26.7z M29.1,15.7c-0.4,1.6-1.6,2.8-3.2,3.2
	C26.3,17.3,27.5,16.1,29.1,15.7z M24.1,18.9c-1.6-0.4-2.8-1.6-3.2-3.2C22.5,16.1,23.7,17.3,24.1,18.9z M24.2,20.6v6.1h-6.1v-6.1
	H24.2z M18.1,28.3h6.1v6.1h-6.1V28.3z M25.8,34.4v-6.1h6.1v6.1L25.8,34.4L25.8,34.4z"/>
</svg>
